<?xml version="1.0" encoding="iso-8859-1"?>
<!-- Generator: Adobe Illustrator 21.0.0, SVG Export Plug-In . SVG Version: 6.00 Build 0)  -->
<svg xmlns="http://www.w3.org/2000/svg" xmlns:xlink="http://www.w3.org/1999/xlink" version="1.1" id="Capa_1" x="0px" y="0px" viewBox="0 0 512.001 512.001" style="enable-background:new 0 0 512.001 512.001;" xml:space="preserve" width="512px" height="512px">
<g id="XMLID_86_">
	<path id="XMLID_107_" d="M356.5,0h-201C123.795,0,98,25.794,98,57.5v397c0,31.706,25.794,57.5,57.5,57.5h201   c31.706,0,57.5-25.794,57.5-57.5v-397C414,25.794,388.206,0,356.5,0z M155.5,30h201c15.164,0,27.5,12.337,27.5,27.5V395H128V57.5   C128,42.337,140.337,30,155.5,30z M356.5,482.001h-201c-15.164,0-27.5-12.337-27.5-27.5V425h256v29.5   C384,469.664,371.664,482.001,356.5,482.001z" fill="#5FAD88"/>
	<path id="XMLID_122_" d="M256,437.001c-8.284,0-15,6.716-15,15v2c0,8.284,6.716,15,15,15s15-6.716,15-15v-2   C271,443.717,264.285,437.001,256,437.001z" fill="#5FAD88"/>
</g>















</svg>
